# xmcd
#
# Track frame offsets:
#	150
#	11518
#	30122
#	44417
#	65631
#	79889
#	93948
#	105358
#	120805
#	134291
#	154026
#	166594
#	183622
#
# Disc length: 2584 seconds
# Revision: 0
# Processed by: cddbd v1.5.2PL0 Copyright (c) Steve Scherf et al.
# Submitted via: dBpowerAMP V12.0
#
DISCID=8f0a160d
DTITLE=Nothin' Fancy - Reflections
DYEAR=2004
DGENRE=Country
TTITLE0=I Wonder
TTITLE1=Little Wooden Crosses
TTITLE2=Reach Up and Touch the Sun
TTITLE3=Last Letter Home
TTITLE4=Seeing Nellie Home (Aunt Dinah's Quilting Party)
TTITLE5=Angels Are Hard to Forget
TTITLE6=Headin' Back to Ole Tennessee
TTITLE7=Your Love Takes the Pain Away
TTITLE8=Bushroe
TTITLE9=I Want to Slow Dance With You
TTITLE10=When the Roll Is Called Up Yonder
TTITLE11=Fly With Me Angel
TTITLE12=I Met My Baby in the Porta Jon Line
EXTD=
EXTT0=
EXTT1=
EXTT2=
EXTT3=
EXTT4=
EXTT5=
EXTT6=
EXTT7=
EXTT8=
EXTT9=
EXTT10=
EXTT11=
EXTT12=
PLAYORDER=
